<svg width="96" height="96" viewBox="0 0 96 96" fill="none" xmlns="http://www.w3.org/2000/svg">

<defs>
  <linearGradient id="gnhPinkBlue" x1="0" y1="0" x2="96" y2="96" gradientUnits="userSpaceOnUse">
    <stop stop-color="#FF3FD8"/>
    <stop offset="0.52" stop-color="#8B4DFF"/>
    <stop offset="1" stop-color="#3B82FF"/>
  </linearGradient>
  <radialGradient id="softFill" cx="0" cy="0" r="1" gradientUnits="userSpaceOnUse" gradientTransform="translate(25 19) rotate(52) scale(42)">
    <stop stop-color="#FFFFFF" stop-opacity="0.72"/>
    <stop offset="0.38" stop-color="#FF6BE1" stop-opacity="0.62"/>
    <stop offset="0.72" stop-color="#6A4DFF" stop-opacity="0.78"/>
    <stop offset="1" stop-color="#29D8FF" stop-opacity="0.8"/>
  </radialGradient>
  <filter id="gnhGlow" x="-70%" y="-70%" width="240%" height="240%">
    <feGaussianBlur stdDeviation="3.2" result="blur"/>
    <feColorMatrix in="blur" type="matrix" values="1 0 0 0 0.9  0 1 0 0 0.15  0 0 1 0 1  0 0 0 0.7 0" result="coloredBlur"/>
    <feMerge>
      <feMergeNode in="coloredBlur"/>
      <feMergeNode in="SourceGraphic"/>
    </feMerge>
  </filter>
</defs>

<path d="M17 31.5L31.2 15h33.6L79 31.5 48 84 17 31.5Z" fill="url(#softFill)" filter="url(#gnhGlow)"/>
<path d="M17 31.5h62M31.2 15 48 84 64.8 15M17 31.5 48 84l31-52.5L64.8 15H31.2L17 31.5Z" stroke="url(#gnhPinkBlue)" stroke-width="3.4" stroke-linejoin="round"/>
<path d="M31.2 15 39 31.5 48 15l9 16.5L64.8 15M39 31.5 48 84l9-52.5" stroke="#FFFFFF" stroke-opacity=".55" stroke-width="2.2" stroke-linecap="round" stroke-linejoin="round"/>
<path d="M20 24.5l-5 3.2 5 3.2 3.2 5 3.2-5 5-3.2-5-3.2-3.2-5-3.2 5Z" fill="#FFB2F0"/>
</svg>
